<svg width="16" height="17" viewBox="0 0 16 17" fill="none" xmlns="http://www.w3.org/2000/svg">
<path d="M13.0563 9.5C13.0578 9.70506 12.9954 9.9055 12.8778 10.0735C12.7602 10.2415 12.5932 10.3687 12.4 10.4375L9.13751 11.6375L7.93751 14.9C7.86648 15.0914 7.73857 15.2564 7.57098 15.373C7.40339 15.4895 7.20415 15.552 7.00001 15.552C6.79588 15.552 6.59663 15.4895 6.42904 15.373C6.26145 15.2564 6.13355 15.0914 6.06251 14.9L4.86251 11.6375L1.60001 10.4375C1.40864 10.3665 1.24358 10.2386 1.12703 10.071C1.01047 9.90338 0.947998 9.70414 0.947998 9.5C0.947998 9.29586 1.01047 9.09662 1.12703 8.92903C1.24358 8.76144 1.40864 8.63354 1.60001 8.5625L4.86251 7.3625L6.06251 4.1C6.13355 3.90862 6.26145 3.74357 6.42904 3.62701C6.59663 3.51046 6.79588 3.44799 7.00001 3.44799C7.20415 3.44799 7.40339 3.51046 7.57098 3.62701C7.73857 3.74357 7.86648 3.90862 7.93751 4.1L9.13751 7.3625L12.4 8.5625C12.5932 8.63128 12.7602 8.7585 12.8778 8.9265C12.9954 9.0945 13.0578 9.29494 13.0563 9.5ZM9.50001 3.5H10.5V4.5C10.5 4.63261 10.5527 4.75979 10.6465 4.85355C10.7402 4.94732 10.8674 5 11 5C11.1326 5 11.2598 4.94732 11.3536 4.85355C11.4473 4.75979 11.5 4.63261 11.5 4.5V3.5H12.5C12.6326 3.5 12.7598 3.44732 12.8536 3.35355C12.9473 3.25979 13 3.13261 13 3C13 2.86739 12.9473 2.74021 12.8536 2.64645C12.7598 2.55268 12.6326 2.5 12.5 2.5H11.5V1.5C11.5 1.36739 11.4473 1.24021 11.3536 1.14645C11.2598 1.05268 11.1326 1 11 1C10.8674 1 10.7402 1.05268 10.6465 1.14645C10.5527 1.24021 10.5 1.36739 10.5 1.5V2.5H9.50001C9.3674 2.5 9.24023 2.55268 9.14646 2.64645C9.05269 2.74021 9.00001 2.86739 9.00001 3C9.00001 3.13261 9.05269 3.25979 9.14646 3.35355C9.24023 3.44732 9.3674 3.5 9.50001 3.5ZM15 5.5H14.5V5C14.5 4.86739 14.4473 4.74021 14.3536 4.64645C14.2598 4.55268 14.1326 4.5 14 4.5C13.8674 4.5 13.7402 4.55268 13.6465 4.64645C13.5527 4.74021 13.5 4.86739 13.5 5V5.5H13C12.8674 5.5 12.7402 5.55268 12.6465 5.64645C12.5527 5.74021 12.5 5.86739 12.5 6C12.5 6.13261 12.5527 6.25979 12.6465 6.35355C12.7402 6.44732 12.8674 6.5 13 6.5H13.5V7C13.5 7.13261 13.5527 7.25979 13.6465 7.35355C13.7402 7.44732 13.8674 7.5 14 7.5C14.1326 7.5 14.2598 7.44732 14.3536 7.35355C14.4473 7.25979 14.5 7.13261 14.5 7V6.5H15C15.1326 6.5 15.2598 6.44732 15.3536 6.35355C15.4473 6.25979 15.5 6.13261 15.5 6C15.5 5.86739 15.4473 5.74021 15.3536 5.64645C15.2598 5.55268 15.1326 5.5 15 5.5Z" fill="#929292"/>
</svg>
